# Blender 4.2.0
# www.blender.org
mtllib window.mtl
o window_door_outside_3x3
v 1.004219 0.055928 -1.592939
v 0.892363 0.055928 -1.592939
v 1.004219 -0.055927 -1.592939
v 1.004219 0.055928 -1.532816
v 2.177637 0.055927 -1.592939
v 2.177637 0.055927 -1.532816
v 2.177637 -0.055928 -1.592939
v 2.278978 0.055927 -1.592939
v 2.278978 -0.055928 -1.592939
v 2.278978 0.055927 -1.532816
v 2.278978 -0.055928 -1.532816
v 2.278978 0.055927 -0.607005
v 2.177637 0.055927 -0.607005
v 2.278978 0.055927 -0.527164
v 2.278978 -0.055928 -0.607005
v 2.177637 -0.055928 -0.607005
v 2.278978 -0.055928 -0.527164
v 2.177637 -0.055928 -0.527164
v 2.278978 -0.055928 0.548931
v 2.177637 -0.055928 0.548931
v 2.278978 -0.055928 0.643400
v 2.278978 0.055927 0.548931
v 2.177637 0.055927 0.548931
v 2.278978 0.055927 0.643400
v 2.177637 0.055927 0.643400
v 2.278978 0.055927 1.483640
v 2.177637 0.055927 1.483640
v 2.278978 0.055927 1.584012
v 2.278978 -0.055928 1.483640
v 2.177637 -0.055928 1.483640
v 2.278978 -0.055928 1.584012
v 2.177637 -0.055928 1.584012
v 1.004219 -0.055927 1.584012
v 2.177637 0.055927 1.584012
v 1.004219 0.055928 1.584012
v 1.004219 0.055928 1.483640
v 0.892363 0.055928 1.584012
v -0.897620 0.055927 1.584012
v 0.892363 0.055928 1.483640
v 0.892363 -0.055927 1.584012
v -0.897620 -0.055928 1.584012
v 0.892363 -0.055927 1.483640
v -0.897620 -0.055928 1.483640
v 0.892363 -0.055927 0.643288
v 1.004219 -0.055927 1.483640
v 1.004219 -0.055927 0.643288
v 1.004219 -0.055927 0.548931
v 1.004219 0.055928 0.643288
v 2.177637 -0.055928 0.643400
v 1.004219 0.055928 0.548931
v 0.892363 0.055928 0.643288
v -0.897620 0.055927 0.643400
v 0.892363 0.055928 0.548931
v -0.897620 0.055927 0.548931
v 0.892363 -0.055927 0.548931
v 0.892363 0.055928 -0.527164
v 0.892363 0.055928 -0.607005
v 0.892363 -0.055927 -0.527164
v 1.004219 0.055928 -0.527164
v 1.004219 0.055928 -0.607005
v 1.004219 -0.055927 -0.527164
v 2.177637 0.055927 -0.527164
v 1.004219 -0.055927 -0.607005
v 1.004219 -0.055927 -1.532816
v 0.892363 -0.055927 -0.607005
v 0.892363 -0.055927 -1.532816
v 0.892363 -0.055927 -1.592939
v 0.892363 0.055928 -1.532816
v 2.177637 -0.055928 -1.532816
v -0.897620 -0.055928 0.548931
v -0.897620 -0.055928 0.643400
v -0.897620 -0.055928 -0.527164
v -0.998961 -0.055928 0.548931
v -0.998961 -0.055928 -0.527164
v -0.998961 0.055927 0.548931
v -0.998961 -0.055928 0.643400
v -2.172380 -0.055927 0.548931
v -2.172380 0.055928 0.548931
v -2.172380 -0.055927 0.643288
v -2.284236 -0.055927 0.548931
v -2.172380 -0.055927 -0.527164
v -2.172380 0.055928 -0.527164
v -2.172380 -0.055927 -0.607005
v -2.284236 -0.055927 -0.527164
v -2.284236 0.055928 -0.527164
v -2.284236 -0.055927 -0.607005
v -2.284236 0.055928 -0.607005
v -2.284236 -0.055927 -1.532816
v -2.172380 -0.055927 -1.532816
v -2.284236 0.055928 -1.532816
v -2.284236 -0.055927 -1.592939
v -2.284236 0.055928 -1.592939
v -2.172380 -0.055927 -1.592939
v -0.998961 -0.055928 -1.592939
v -2.172380 0.055928 -1.592939
v -0.998961 0.055927 -1.592939
v -2.172380 0.055928 -1.532816
v -0.998961 0.055927 -1.532816
v -2.172380 0.055928 -0.607005
v -0.998961 0.055927 -0.607005
v -0.998961 -0.055928 -0.607005
v -0.897620 0.055927 -0.607005
v -0.998961 0.055927 -0.527164
v -0.897620 0.055927 -0.527164
v -0.897620 0.055927 -1.532816
v -0.897620 -0.055928 -0.607005
v -0.897620 -0.055928 -1.532816
v -0.998961 -0.055928 -1.532816
v -0.897620 -0.055928 -1.592939
v -0.897620 0.055927 -1.592939
v -2.284236 0.055928 0.548931
v -2.284236 0.055928 0.643288
v -2.284236 0.055928 1.483640
v -2.284236 -0.055927 0.643288
v -2.172380 0.055928 0.643288
v -0.998961 0.055927 0.643400
v -2.172380 0.055928 1.483640
v -2.172380 -0.055927 1.483640
v -0.998961 0.055927 1.483640
v -2.172380 0.055928 1.584012
v -0.998961 0.055927 1.584012
v -2.172380 -0.055927 1.584012
v -2.284236 0.055928 1.584012
v -2.284236 -0.055927 1.584012
v -2.284236 -0.055927 1.483640
v -0.998961 -0.055928 1.584012
v -0.998961 -0.055928 1.483640
v -0.897620 0.055927 1.483640
vn -0.0000 1.0000 -0.0000
vn -0.0000 -0.0000 -1.0000
vn 1.0000 -0.0000 -0.0000
vn -0.0000 -1.0000 -0.0000
vn -0.0000 -0.0000 1.0000
vn -1.0000 -0.0000 -0.0000
vn -0.0001 -0.0000 1.0000
vn 0.0001 -0.0000 1.0000
vt 0.184838 0.075592
vt 0.188404 0.075592
vt 0.188404 0.082225
vt 0.184838 0.082225
vt 0.968603 0.166858
vt 0.975237 0.166858
vt 0.975237 0.173491
vt 0.968603 0.173491
vt 0.968603 0.097275
vt 0.975237 0.097275
vt 0.184838 0.006009
vt 0.188404 0.006009
vt 0.184838 0.000000
vt 0.188404 0.000000
vt 0.968603 0.091266
vt 0.975237 0.091266
vt 0.928803 0.009041
vt 0.928803 0.012606
vt 0.922169 0.012606
vt 0.922169 0.009041
vt 0.129934 0.006009
vt 0.129934 0.000000
vt 0.928803 0.067506
vt 0.922169 0.067506
vt 0.125200 0.006009
vt 0.125200 0.000000
vt 0.928803 0.072240
vt 0.922169 0.072240
vt 0.246873 0.000000
vt 0.246873 0.006009
vt 0.191969 0.006009
vt 0.191969 0.000000
vt 0.251607 0.006009
vt 0.251607 0.000000
vt 0.315423 0.000000
vt 0.315423 0.006009
vt 0.928803 0.136052
vt 0.922169 0.136052
vt 0.321026 0.006009
vt 0.321026 0.000000
vt 0.928803 0.141654
vt 0.922169 0.141654
vt 0.061384 0.006009
vt 0.061384 0.000000
vt 0.055781 0.006009
vt 0.055781 0.000000
vt 0.005952 0.006009
vt 0.005952 0.000000
vt 0.928803 0.191479
vt 0.922169 0.191479
vt 0.000000 0.006009
vt 0.000000 0.000000
vt 0.928803 0.197431
vt 0.922169 0.197431
vt 0.370855 0.000000
vt 0.370855 0.006009
vt 0.376807 0.006009
vt 0.376807 0.000000
vt 0.248630 0.660270
vt 0.241997 0.660270
vt 0.241997 0.654261
vt 0.248630 0.654261
vt 0.248630 0.729853
vt 0.241997 0.729853
vt 0.376807 0.075592
vt 0.370855 0.075592
vt 0.005952 0.075592
vt 0.000000 0.075592
vt 0.005952 0.082225
vt 0.000000 0.082225
vt 0.248630 0.736486
vt 0.241997 0.736486
vt 0.248630 0.842631
vt 0.241997 0.842631
vt 0.005952 0.188370
vt 0.000000 0.188370
vt 0.376807 0.188370
vt 0.370855 0.188370
vt 0.370855 0.082225
vt 0.376807 0.082225
vt 0.504439 0.969220
vt 0.497806 0.969220
vt 0.497806 0.863075
vt 0.504439 0.863075
vt 0.403341 0.982490
vt 0.396707 0.982490
vt 0.396707 0.932658
vt 0.403341 0.932658
vt 0.321019 0.082225
vt 0.321019 0.075592
vt 0.744344 0.982013
vt 0.737711 0.982013
vt 0.737711 0.932181
vt 0.744344 0.932181
vt 0.081437 0.973130
vt 0.074804 0.973130
vt 0.074804 0.903547
vt 0.081437 0.903547
vt 0.315423 0.075592
vt 0.315423 0.082225
vt 0.261897 0.973130
vt 0.255264 0.973130
vt 0.255264 0.903547
vt 0.261897 0.903547
vt 0.504439 0.932658
vt 0.511072 0.932658
vt 0.511072 0.982484
vt 0.504439 0.982484
vt 0.061384 0.075592
vt 0.055788 0.075592
vt 0.061384 0.082225
vt 0.055788 0.082225
vt 0.683217 0.971875
vt 0.676583 0.971875
vt 0.676583 0.865730
vt 0.683217 0.865730
vt 0.061384 0.188370
vt 0.055781 0.188370
vt 0.560908 0.972353
vt 0.554274 0.972353
vt 0.554274 0.866208
vt 0.560908 0.866208
vt 0.961970 0.072852
vt 0.955336 0.072852
vt 0.955336 0.009041
vt 0.961970 0.009041
vt 0.125200 0.075592
vt 0.125200 0.082225
vt 0.129934 0.075592
vt 0.129934 0.082225
vt 0.961970 0.077587
vt 0.955336 0.077587
vt 0.986837 0.646031
vt 0.980204 0.646031
vt 0.980204 0.582220
vt 0.986837 0.582220
vt 0.107971 0.973130
vt 0.101337 0.973130
vt 0.101337 0.903547
vt 0.107971 0.903547
vt 0.975237 0.072852
vt 0.981870 0.072852
vt 0.981870 0.136664
vt 0.975237 0.136664
vt 0.251607 0.075592
vt 0.246873 0.075592
vt 0.246873 0.082225
vt 0.251607 0.082225
vt 0.646648 0.987080
vt 0.640014 0.987080
vt 0.640014 0.932181
vt 0.646648 0.932181
vt 0.191969 0.082225
vt 0.191969 0.075592
vt 0.068170 0.973130
vt 0.061537 0.973130
vt 0.061537 0.903547
vt 0.068170 0.903547
vt 0.961970 0.132487
vt 0.955336 0.132487
vt 0.955336 0.136052
vt 0.961970 0.136052
vt 0.094704 0.973130
vt 0.094704 0.903547
vt 0.611644 0.927720
vt 0.618278 0.927720
vt 0.618278 0.982619
vt 0.611644 0.982619
vt 0.321026 0.188370
vt 0.315423 0.188370
vt 0.953670 0.856738
vt 0.947037 0.856738
vt 0.947037 0.792927
vt 0.953670 0.792927
vt 0.321026 0.194379
vt 0.315423 0.194379
vt 0.251608 0.194379
vt 0.251608 0.188370
vt 0.980204 0.199350
vt 0.986837 0.199350
vt 0.986837 0.263162
vt 0.980204 0.263162
vt 0.083716 0.837097
vt 0.077083 0.837097
vt 0.077083 0.767514
vt 0.083716 0.767514
vt 0.321019 0.263962
vt 0.315423 0.263962
vt 0.578477 0.991531
vt 0.571844 0.991531
vt 0.571844 0.927720
vt 0.578477 0.927720
vt 0.315423 0.270595
vt 0.321019 0.270595
vt 0.251608 0.270595
vt 0.251608 0.263962
vt 0.046434 0.973130
vt 0.039800 0.973130
vt 0.039800 0.903547
vt 0.046434 0.903547
vt 0.246873 0.263962
vt 0.246873 0.194379
vt 0.246873 0.270595
vt 0.935436 0.819887
vt 0.928803 0.819887
vt 0.928803 0.756076
vt 0.935436 0.756076
vt 0.935436 0.824622
vt 0.928803 0.824622
vt 0.935436 0.879521
vt 0.928803 0.879521
vt 0.191969 0.270595
vt 0.191969 0.263962
vt 0.188404 0.263962
vt 0.188404 0.270595
vt 0.928803 0.883087
vt 0.935436 0.883087
vt 0.940247 0.679193
vt 0.946881 0.679193
vt 0.946881 0.685826
vt 0.940247 0.685826
vt 0.188404 0.194379
vt 0.191969 0.194379
vt 0.940247 0.609610
vt 0.946881 0.609610
vt 0.184838 0.263962
vt 0.184838 0.194379
vt 0.184838 0.270595
vt 0.053067 0.973130
vt 0.053067 0.903547
vt 0.717811 0.987081
vt 0.711177 0.987081
vt 0.711177 0.932181
vt 0.717811 0.932181
vt 0.129934 0.270595
vt 0.129934 0.263962
vt 0.090350 0.837097
vt 0.090350 0.767514
vt 0.125200 0.263962
vt 0.125200 0.194379
vt 0.129934 0.194379
vt 0.125200 0.270595
vt 0.786781 0.212810
vt 0.793415 0.212810
vt 0.793415 0.267710
vt 0.786781 0.267710
vt 0.129934 0.188370
vt 0.184838 0.188370
vt 0.125200 0.188370
vt 0.061384 0.194379
vt 0.947037 0.788192
vt 0.953670 0.788192
vt 0.947037 0.733292
vt 0.953670 0.733292
vt 0.246873 0.188370
vt 0.191969 0.188370
vt 0.953670 0.729727
vt 0.947037 0.729727
vt 0.188404 0.188370
vt 0.940247 0.603600
vt 0.946881 0.603600
vt 0.061384 0.270595
vt 0.061384 0.263962
vt 0.055788 0.270595
vt 0.055788 0.263962
vt 0.928803 0.750480
vt 0.935436 0.750480
vt 0.005952 0.270595
vt 0.005952 0.263962
vt 0.928803 0.700648
vt 0.935436 0.700648
vt 0.055781 0.194379
vt 0.033167 0.973130
vt 0.033167 0.903547
vt 0.390074 0.982490
vt 0.383440 0.982490
vt 0.383440 0.932658
vt 0.390074 0.932658
vt 0.070449 0.837097
vt 0.070449 0.767514
vt 0.000000 0.263962
vt 0.000000 0.194379
vt 0.005952 0.194379
vt 0.000000 0.270595
vt 0.248630 0.918223
vt 0.241997 0.918223
vt 0.241997 0.848640
vt 0.248630 0.848640
vt 0.248630 0.924856
vt 0.241997 0.924856
vt 0.928803 0.694696
vt 0.935436 0.694696
vt 0.370855 0.270595
vt 0.370855 0.263962
vt 0.376807 0.263962
vt 0.376807 0.270595
vt 0.370855 0.194379
vt 0.376807 0.194379
vt 0.426643 0.932658
vt 0.433276 0.932658
vt 0.433276 0.982484
vt 0.426643 0.982484
vt 0.446543 0.932658
vt 0.453176 0.932658
vt 0.453176 0.982484
vt 0.446543 0.982484
s 0
usemtl M_glass_frame_black_glossy
f 4/1/1 1/2/1 2/3/1 68/4/1
f 1/5/2 3/6/2 67/7/2 2/8/2
f 3/6/2 1/5/2 5/9/2 7/10/2
f 1/2/1 4/1/1 6/11/1 5/12/1
f 5/12/1 6/11/1 10/13/1 8/14/1
f 7/10/2 5/9/2 8/15/2 9/16/2
f 8/17/3 10/18/3 11/19/3 9/20/3
f 13/21/1 12/22/1 10/13/1 6/11/1
f 12/23/3 15/24/3 11/19/3 10/18/3
f 13/21/1 62/25/1 14/26/1 12/22/1
f 15/24/3 12/23/3 14/27/3 17/28/3
f 15/29/4 16/30/4 69/31/4 11/32/4
f 18/33/4 16/30/4 15/29/4 17/34/4
f 19/35/4 20/36/4 18/33/4 17/34/4
f 22/37/3 19/38/3 17/28/3 14/27/3
f 49/39/4 20/36/4 19/35/4 21/40/4
f 19/38/3 22/37/3 24/41/3 21/42/3
f 23/43/1 22/44/1 14/26/1 62/25/1
f 23/43/1 25/45/1 24/46/1 22/44/1
f 27/47/1 26/48/1 24/46/1 25/45/1
f 26/49/3 29/50/3 21/42/3 24/41/3
f 27/47/1 34/51/1 28/52/1 26/48/1
f 29/50/3 26/49/3 28/53/3 31/54/3
f 29/55/4 30/56/4 49/39/4 21/40/4
f 32/57/4 30/56/4 29/55/4 31/58/4
f 34/59/5 32/60/5 31/61/5 28/62/5
f 35/63/5 33/64/5 32/60/5 34/59/5
f 33/65/4 45/66/4 30/56/4 32/57/4
f 36/67/1 35/68/1 34/51/1 27/47/1
f 36/67/1 39/69/1 37/70/1 35/68/1
f 35/63/5 37/71/5 40/72/5 33/64/5
f 38/73/5 41/74/5 40/72/5 37/71/5
f 128/75/1 38/76/1 37/70/1 39/69/1
f 41/77/4 43/78/4 42/79/4 40/80/4
f 42/79/4 45/66/4 33/65/4 40/80/4
f 43/81/2 128/82/2 39/83/2 42/84/2
f 51/85/6 44/86/6 42/87/6 39/88/6
f 44/89/4 46/90/4 45/66/4 42/79/4
f 46/91/3 48/92/3 36/93/3 45/94/3
f 45/95/2 36/96/2 27/97/2 30/98/2
f 46/90/4 47/99/4 20/36/4 49/39/4
f 55/100/4 47/99/4 46/90/4 44/89/4
f 48/101/7 46/102/7 49/103/7 25/104/7
f 30/105/6 27/106/6 25/107/6 49/108/6
f 50/109/1 48/110/1 25/45/1 23/43/1
f 50/109/1 53/111/1 51/112/1 48/110/1
f 48/110/1 51/112/1 39/69/1 36/67/1
f 52/113/8 71/114/8 44/115/8 51/116/8
f 54/117/1 52/118/1 51/112/1 53/111/1
f 70/119/2 54/120/2 53/121/2 55/122/2
f 56/123/6 58/124/6 55/125/6 53/126/6
f 59/127/1 56/128/1 53/111/1 50/109/1
f 60/129/1 57/130/1 56/128/1 59/127/1
f 57/131/6 65/132/6 58/124/6 56/123/6
f 60/129/1 59/127/1 62/25/1 13/21/1
f 61/133/3 59/134/3 50/135/3 47/136/3
f 59/137/5 61/138/5 18/139/5 62/140/5
f 20/141/6 23/142/6 62/143/6 18/144/6
f 61/145/4 63/146/4 16/30/4 18/33/4
f 65/147/4 63/146/4 61/145/4 58/148/4
f 58/148/4 61/145/4 47/99/4 55/100/4
f 64/149/3 4/150/3 60/151/3 63/152/3
f 66/153/4 64/154/4 63/146/4 65/147/4
f 63/155/2 60/156/2 13/157/2 16/158/2
f 68/159/6 66/160/6 65/132/6 57/131/6
f 3/2/4 64/154/4 66/153/4 67/3/4
f 67/161/6 66/160/6 68/159/6 2/162/6
f 4/1/1 68/4/1 57/130/1 60/129/1
f 64/154/4 3/2/4 7/12/4 69/31/4
f 4/138/5 64/163/5 69/164/5 6/139/5
f 69/31/4 7/12/4 9/14/4 11/32/4
f 16/165/6 13/166/6 6/167/6 69/168/6
f 71/169/4 70/170/4 55/100/4 44/89/4
f 54/171/3 70/172/3 72/173/3 104/174/3
f 76/175/4 73/176/4 70/170/4 71/169/4
f 70/170/4 73/176/4 74/177/4 72/178/4
f 73/179/6 75/180/6 103/181/6 74/182/6
f 77/183/2 78/184/2 75/185/2 73/186/2
f 79/187/4 77/188/4 73/176/4 76/175/4
f 81/189/3 82/190/3 78/191/3 77/192/3
f 80/193/4 77/188/4 79/187/4 114/194/4
f 84/195/4 81/196/4 77/188/4 80/193/4
f 82/197/5 81/198/5 74/199/5 103/200/5
f 81/196/4 83/201/4 101/202/4 74/177/4
f 86/203/4 83/201/4 81/196/4 84/195/4
f 85/204/6 84/205/6 80/206/6 111/207/6
f 87/208/6 86/209/6 84/205/6 85/204/6
f 90/210/6 88/211/6 86/209/6 87/208/6
f 88/212/4 89/213/4 83/201/4 86/203/4
f 93/214/4 89/213/4 88/212/4 91/215/4
f 91/216/6 88/211/6 90/210/6 92/217/6
f 95/218/2 93/219/2 91/220/2 92/221/2
f 89/213/4 93/214/4 94/222/4 108/223/4
f 93/219/2 95/218/2 96/224/2 94/225/2
f 95/214/1 97/226/1 98/227/1 96/222/1
f 97/226/1 95/214/1 92/215/1 90/228/1
f 97/229/5 89/197/5 108/200/5 98/230/5
f 89/231/3 97/232/3 99/233/3 83/234/3
f 97/226/1 90/228/1 87/235/1 99/236/1
f 83/237/2 99/183/2 100/186/2 101/238/2
f 99/236/1 82/239/1 103/240/1 100/241/1
f 99/236/1 87/235/1 85/242/1 82/239/1
f 101/243/6 100/244/6 98/245/6 108/246/6
f 100/241/1 102/247/1 105/248/1 98/227/1
f 100/241/1 103/240/1 104/249/1 102/247/1
f 75/250/1 54/117/1 104/249/1 103/240/1
f 106/251/3 102/252/3 104/174/3 72/173/3
f 102/252/3 106/251/3 107/253/3 105/254/3
f 106/255/4 101/202/4 108/223/4 107/256/4
f 74/177/4 101/202/4 106/255/4 72/178/4
f 110/257/3 105/254/3 107/253/3 109/258/3
f 108/223/4 94/222/4 109/259/4 107/256/4
f 94/225/2 96/224/2 110/260/2 109/261/2
f 96/222/1 98/227/1 105/248/1 110/259/1
f 82/239/1 85/242/1 111/262/1 78/263/1
f 78/263/1 111/262/1 112/264/1 115/265/1
f 111/207/6 80/206/6 114/266/6 112/267/6
f 115/265/1 112/264/1 113/268/1 117/269/1
f 112/267/6 114/266/6 125/270/6 113/271/6
f 78/263/1 115/265/1 116/272/1 75/250/1
f 115/198/7 79/273/7 76/274/7 116/199/7
f 79/275/3 115/276/3 117/277/3 118/278/3
f 118/184/2 117/279/2 119/280/2 127/185/2
f 117/269/1 120/281/1 121/282/1 119/283/1
f 117/269/1 113/268/1 123/284/1 120/281/1
f 120/285/5 122/286/5 126/287/5 121/288/5
f 120/285/5 123/289/5 124/290/5 122/286/5
f 113/271/6 125/270/6 124/291/6 123/292/6
f 125/293/4 118/294/4 122/295/4 124/296/4
f 114/194/4 79/187/4 118/294/4 125/293/4
f 122/295/4 118/294/4 127/297/4 126/298/4
f 121/288/5 126/287/5 41/74/5 38/73/5
f 126/298/4 127/297/4 43/78/4 41/77/4
f 43/78/4 127/297/4 76/175/4 71/169/4
f 127/299/6 119/300/6 116/301/6 76/302/6
f 119/283/1 121/282/1 38/76/1 128/75/1
f 119/283/1 128/75/1 52/118/1 116/272/1
f 128/303/3 43/304/3 71/305/3 52/306/3
f 75/250/1 116/272/1 52/118/1 54/117/1
f 47/96/2 50/155/2 23/158/2 20/97/2
