# Blender 4.2.0
# www.blender.org
mtllib window.mtl
o window_outside_double
v 0.055928 1.040436 -0.901735
v 0.055928 1.145267 -0.901735
v -0.055927 1.145267 -0.901735
v -0.055927 1.040436 -0.901735
v 0.055928 1.040436 -0.821894
v -0.055927 1.040436 -0.821894
v -0.055927 1.145267 -0.821894
v 0.055928 1.145267 -0.821894
v 0.055928 1.040436 0.240023
v 0.055928 1.145267 0.240023
v -0.055927 1.145267 0.240023
v -0.055927 1.040436 0.240023
v 0.055928 1.040436 0.334381
v -0.055927 1.040436 0.334381
v -0.055927 1.145267 0.334381
v 0.055928 1.145267 0.334381
v 0.055928 1.145267 0.524406
v 0.055928 1.040436 0.524406
v -0.055927 1.145267 0.524406
v -0.055927 1.040436 0.524406
v -0.055927 1.040436 0.624779
v 0.055928 1.040436 0.624779
v -0.055927 1.145267 0.624779
v 0.055928 1.145267 0.624779
v -0.055928 0.048793 0.524406
v -0.055928 0.048793 0.624779
v 0.055927 0.048793 0.624779
v 0.055927 0.048793 0.524406
v -0.055928 0.048793 0.240023
v -0.055928 0.048793 0.334493
v 0.055927 0.048793 0.334493
v 0.055927 0.048793 0.240023
v -0.055928 0.048793 -0.901735
v -0.055928 0.048793 -0.821894
v 0.055927 0.048793 -0.821894
v 0.055927 0.048793 -0.901735
v -0.055928 -0.046184 -0.901735
v 0.055927 -0.046184 -0.901735
v 0.055927 -0.046184 -0.821894
v -0.055928 -0.046184 -0.821894
v -0.055928 -0.046184 0.240023
v 0.055927 -0.046184 0.240023
v 0.055927 -0.046184 0.334493
v -0.055928 -0.046184 0.334493
v -0.055928 -0.046184 0.524406
v 0.055927 -0.046184 0.524406
v 0.055927 -0.046184 0.624779
v -0.055928 -0.046184 0.624779
v 0.055928 -1.041740 0.624779
v -0.055928 -1.041740 0.624779
v 0.055928 -1.146571 0.624779
v -0.055928 -1.146571 0.624779
v -0.055928 -1.146571 0.524406
v -0.055928 -1.041740 0.524406
v 0.055928 -1.146571 0.524406
v 0.055928 -1.041740 0.524406
v 0.055928 -1.041739 0.334381
v -0.055928 -1.041739 0.334381
v -0.055928 -1.146571 0.334381
v 0.055928 -1.146571 0.334381
v -0.055928 -1.146571 0.240023
v -0.055928 -1.041739 0.240023
v 0.055928 -1.041739 0.240023
v 0.055928 -1.146571 0.240023
v 0.055928 -1.041739 -0.821894
v -0.055928 -1.041739 -0.821894
v -0.055928 -1.146571 -0.821894
v 0.055928 -1.146571 -0.821894
v -0.055928 -1.146571 -0.901735
v -0.055928 -1.041739 -0.901735
v 0.055928 -1.041739 -0.901735
v 0.055928 -1.146571 -0.901735
vn -1.0000 -0.0000 -0.0000
vn -0.0000 1.0000 -0.0000
vn 1.0000 -0.0000 -0.0000
vn -0.0000 -1.0000 -0.0000
vn -0.0000 -0.0000 1.0000
vn -0.0000 -0.0000 -1.0000
vn -0.0000 0.0001 1.0000
vn -0.0000 -0.0001 1.0000
vt 0.000000 0.526718
vt 0.000000 0.502626
vt 0.018413 0.502626
vt 0.018413 0.526718
vt 0.894927 0.351441
vt 0.869131 0.351441
vt 0.869131 0.333060
vt 0.894927 0.333060
vt 0.704094 0.502625
vt 0.704094 0.526718
vt 0.685681 0.526718
vt 0.685681 0.502625
vt 0.440780 0.526718
vt 0.440780 0.502626
vt 0.869131 0.088580
vt 0.894927 0.088580
vt 0.263314 0.502626
vt 0.263314 0.526718
vt 0.920724 0.488959
vt 0.894928 0.488959
vt 0.894927 0.244480
vt 0.920724 0.244480
vt 0.285075 0.502626
vt 0.285075 0.526718
vt 0.869131 0.066857
vt 0.894927 0.066857
vt 0.419019 0.526718
vt 0.419019 0.502626
vt 0.375195 0.526718
vt 0.375195 0.502625
vt 0.869131 0.023108
vt 0.894927 0.023108
vt 0.328899 0.502626
vt 0.328899 0.526718
vt 0.781483 0.501353
vt 0.755687 0.501353
vt 0.755687 0.457604
vt 0.781483 0.457604
vt 0.352047 0.502626
vt 0.352047 0.526718
vt 0.869131 0.000000
vt 0.894927 0.000000
vt 0.352047 0.502625
vt 0.729890 0.502625
vt 0.729890 0.526718
vt 0.328899 0.274723
vt 0.352047 0.274723
vt 0.704094 0.274723
vt 0.729890 0.274723
vt 0.375195 0.274723
vt 0.998113 0.227903
vt 0.972316 0.227903
vt 0.972316 0.000000
vt 0.998113 0.000000
vt 0.263314 0.274723
vt 0.285101 0.274723
vt 0.966576 0.526718
vt 0.992373 0.526718
vt 0.992373 0.754621
vt 0.966576 0.754621
vt 0.418993 0.274723
vt 0.440780 0.274723
vt 0.992373 0.983423
vt 0.966576 0.983423
vt 0.966576 0.755520
vt 0.992373 0.755520
vt 0.000000 0.274722
vt 0.018413 0.274722
vt 0.940780 0.755520
vt 0.940780 0.983423
vt 0.685680 0.274722
vt 0.704094 0.274722
vt 0.729890 0.024093
vt 0.755687 0.024093
vt 0.755686 0.251996
vt 0.729890 0.251996
vt 0.685680 0.252895
vt 0.704094 0.252895
vt 0.000000 0.252895
vt 0.018413 0.252895
vt 0.418993 0.252895
vt 0.440780 0.252895
vt 0.263314 0.252895
vt 0.285101 0.252895
vt 0.352047 0.252895
vt 0.375195 0.252895
vt 0.729890 0.252895
vt 0.328899 0.252895
vt 0.048446 0.771198
vt 0.074242 0.771198
vt 0.074242 0.814921
vt 0.048446 0.814921
vt 0.100039 0.771198
vt 0.100039 0.814921
vt 0.920724 0.000000
vt 0.894928 0.244480
vt 0.914983 0.526718
vt 0.940780 0.526718
vt 0.940780 0.771198
vt 0.914984 0.771198
vt 0.729890 0.000000
vt 0.704094 0.024093
vt 0.704094 0.000000
vt 0.375195 0.000000
vt 0.375195 0.024093
vt 0.352047 0.024093
vt 0.352047 0.000000
vt 0.328899 0.024093
vt 0.328899 0.000000
vt 0.843335 0.284585
vt 0.869131 0.284585
vt 0.869131 0.328333
vt 0.843335 0.328333
vt 0.285075 0.024093
vt 0.285075 0.000000
vt 0.807279 0.501353
vt 0.807279 0.457604
vt 0.419019 0.000000
vt 0.419019 0.024093
vt 0.440780 0.000000
vt 0.440780 0.024093
vt 0.263314 0.024093
vt 0.263314 0.000000
vt 0.843335 0.018381
vt 0.869131 0.018381
vt 0.869131 0.262861
vt 0.843335 0.262861
vt 0.018413 0.024093
vt 0.018413 0.000000
vt 0.946520 0.244480
vt 0.946520 0.000000
vt 0.685680 0.000000
vt 0.685680 0.024093
vt 0.000000 0.024093
vt 0.000000 0.000000
vt 0.946520 0.473282
vt 0.920724 0.473282
vt 0.972317 0.473282
vt 0.972317 0.244480
vt 0.843335 0.351441
vt 0.843335 0.000000
vt 0.972316 0.228802
vt 0.946520 0.228802
vt 0.729890 0.273823
vt 0.755686 0.273823
vt 0.755687 0.502625
vt 0.755687 0.526718
vt 0.755687 0.000000
s 0
usemtl M_glass_frame_black_glossy
f 3/1/1 4/2/1 6/3/1 7/4/1
f 2/5/2 3/6/2 7/7/2 8/8/2
f 1/9/3 2/10/3 8/11/3 5/12/3
f 5/12/3 8/11/3 10/13/3 9/14/3
f 8/8/2 7/7/2 11/15/2 10/16/2
f 7/4/1 6/3/1 12/17/1 11/18/1
f 6/19/4 5/20/4 9/21/4 12/22/4
f 11/18/1 12/17/1 14/23/1 15/24/1
f 10/16/2 11/15/2 15/25/2 16/26/2
f 9/14/3 10/13/3 16/27/3 13/28/3
f 13/28/3 16/27/3 17/29/3 18/30/3
f 16/26/2 15/25/2 19/31/2 17/32/2
f 15/24/1 14/23/1 20/33/1 19/34/1
f 14/35/4 13/36/4 18/37/4 20/38/4
f 19/34/1 20/33/1 21/39/1 23/40/1
f 17/32/2 19/31/2 23/41/2 24/42/2
f 18/30/3 17/29/3 24/40/3 22/43/3
f 22/44/5 24/45/5 23/10/5 21/9/5
f 21/39/1 20/33/1 25/46/1 26/47/1
f 22/44/5 21/9/5 26/48/5 27/49/5
f 18/30/3 22/43/3 27/47/3 28/50/3
f 20/51/6 18/52/6 28/53/6 25/54/6
f 14/23/1 12/17/1 29/55/1 30/56/1
f 13/57/7 14/58/7 30/59/7 31/60/7
f 9/14/3 13/28/3 31/61/3 32/62/3
f 12/63/6 9/64/6 32/65/6 29/66/6
f 6/3/1 4/2/1 33/67/1 34/68/1
f 5/69/5 6/65/5 34/64/5 35/70/5
f 1/9/3 5/12/3 35/71/3 36/72/3
f 4/73/6 1/74/6 36/75/6 33/76/6
f 36/72/3 35/71/3 39/77/3 38/78/3
f 34/68/1 33/67/1 37/79/1 40/80/1
f 32/62/3 31/61/3 43/81/3 42/82/3
f 30/56/1 29/55/1 41/83/1 44/84/1
f 28/50/3 27/47/3 47/85/3 46/86/3
f 27/49/5 26/48/5 48/78/5 47/87/5
f 26/47/1 25/46/1 45/88/1 48/85/1
f 45/88/1 25/46/1 30/56/1 44/84/1
f 46/89/4 45/90/4 44/91/4 43/92/4
f 28/50/3 46/86/3 43/81/3 31/61/3
f 25/90/2 28/93/2 31/94/2 30/91/2
f 41/83/1 29/55/1 34/68/1 40/80/1
f 42/42/4 41/95/4 40/22/4 39/96/4
f 32/62/3 42/82/3 39/77/3 35/71/3
f 29/97/2 32/98/2 35/99/2 34/100/2
f 51/101/5 49/73/5 50/102/5 52/103/5
f 55/104/3 56/105/3 49/106/3 51/107/3
f 54/108/1 53/109/1 52/107/1 50/106/1
f 59/110/4 60/111/4 55/112/4 53/113/4
f 58/114/1 59/115/1 53/109/1 54/108/1
f 57/116/2 58/35/2 54/38/2 56/117/2
f 60/118/3 57/119/3 56/105/3 55/104/3
f 64/120/3 63/121/3 57/119/3 60/118/3
f 62/122/1 61/123/1 59/115/1 58/114/1
f 67/124/4 68/125/4 64/126/4 61/127/4
f 66/128/1 67/129/1 61/123/1 62/122/1
f 65/130/2 66/22/2 62/95/2 63/131/2
f 68/132/3 65/133/3 63/121/3 64/120/3
f 72/103/3 71/102/3 65/133/3 68/132/3
f 70/134/1 69/135/1 67/129/1 66/128/1
f 48/85/1 45/88/1 54/108/1 50/106/1
f 47/87/5 48/78/5 50/102/5 49/73/5
f 46/86/3 47/85/3 49/106/3 56/105/3
f 45/136/6 46/137/6 56/22/6 54/130/6
f 44/84/1 41/83/1 62/122/1 58/114/1
f 43/138/8 44/136/8 58/130/8 57/139/8
f 42/82/3 43/81/3 57/119/3 63/121/3
f 41/65/6 42/69/6 63/98/6 62/57/6
f 52/140/4 53/113/4 55/112/4 51/6/4
f 59/110/4 61/127/4 64/126/4 60/111/4
f 67/124/4 69/141/4 72/41/4 68/125/4
f 40/80/1 37/79/1 70/134/1 66/128/1
f 39/142/5 40/143/5 66/131/5 65/53/5
f 38/78/3 39/77/3 65/133/3 71/102/3
f 37/144/6 38/145/6 71/146/6 70/44/6
f 33/76/6 36/75/6 38/145/6 37/144/6
f 69/45/6 70/44/6 71/146/6 72/147/6
f 1/74/6 4/73/6 3/101/6 2/148/6
