# Blender 4.2.0
# www.blender.org
mtllib window.mtl
o window_door
v 0.055928 0.940169 -1.423267
v -0.055927 0.940169 -1.423267
v -0.055927 1.052024 -1.423267
v 0.055928 1.052024 -1.423267
v 0.055928 0.940168 -1.363144
v -0.055927 0.940169 -1.363144
v -0.055927 1.052024 -1.363144
v 0.055928 1.052024 -1.363144
v 0.055928 0.940168 -0.437333
v 0.055928 1.052024 -0.437333
v -0.055927 1.052024 -0.437333
v -0.055927 0.940169 -0.437333
v 0.055928 0.940168 -0.357492
v -0.055927 0.940169 -0.357492
v -0.055927 1.052024 -0.357492
v 0.055928 1.052024 -0.357492
v 0.055928 0.940169 0.704425
v 0.055928 1.052024 0.704425
v -0.055927 1.052024 0.704425
v -0.055927 0.940169 0.704425
v 0.055928 0.940169 0.798783
v -0.055927 0.940169 0.798783
v -0.055927 1.052024 0.798783
v 0.055928 1.052024 0.798783
v 0.055928 1.052024 0.988808
v 0.055928 0.940168 0.988808
v -0.055927 1.052024 0.988808
v -0.055927 0.940169 0.988808
v -0.055927 0.940169 1.089181
v 0.055928 0.940168 1.089181
v -0.055927 1.052024 1.089181
v 0.055928 1.052024 1.089181
v -0.055928 0.302038 0.988808
v -0.055928 0.302038 1.089181
v 0.055927 0.302038 1.089181
v 0.055927 0.302038 0.988808
v -0.055928 0.302038 0.704425
v -0.055928 0.302038 0.798895
v 0.055927 0.302038 0.798895
v 0.055927 0.302038 0.704425
v -0.055928 0.302038 -0.437333
v -0.055928 0.302038 -0.357492
v 0.055927 0.302038 -0.357492
v 0.055927 0.302038 -0.437333
v 0.055927 0.302038 -1.423267
v 0.055927 0.302038 -1.363144
v -0.055928 0.302038 -1.423267
v -0.055928 0.302038 -1.363144
v 0.055927 0.200697 -1.423267
v -0.055928 0.200697 -1.423267
v 0.055927 0.200697 -1.363144
v -0.055928 0.200697 -1.363144
v -0.055928 0.200697 -0.437333
v 0.055927 0.200697 -0.437333
v 0.055927 0.200697 -0.357492
v -0.055928 0.200697 -0.357492
v -0.055928 0.200697 0.704425
v 0.055927 0.200697 0.704425
v 0.055927 0.200697 0.798895
v -0.055928 0.200697 0.798895
v -0.055928 0.200697 0.988808
v 0.055927 0.200697 0.988808
v 0.055927 0.200697 1.089181
v -0.055928 0.200697 1.089181
v 0.055928 -1.191538 1.089181
v -0.055928 -1.191538 1.089181
v 0.055928 -1.303393 1.089181
v -0.055928 -1.303393 1.089181
v -0.055928 -1.303393 0.988808
v -0.055928 -1.191538 0.988808
v 0.055928 -1.303393 0.988808
v 0.055928 -1.191538 0.988808
v 0.055928 -1.191537 0.798783
v -0.055928 -1.191537 0.798783
v -0.055928 -1.303393 0.798783
v 0.055928 -1.303393 0.798783
v -0.055928 -1.303393 0.704425
v -0.055928 -1.191537 0.704425
v 0.055928 -1.191537 0.704425
v 0.055928 -1.303393 0.704425
v 0.055928 -1.191537 -0.357492
v -0.055928 -1.191537 -0.357492
v -0.055928 -1.303393 -0.357492
v 0.055928 -1.303393 -0.357492
v -0.055928 -1.303393 -0.437333
v -0.055928 -1.191537 -0.437333
v 0.055928 -1.191537 -0.437333
v 0.055928 -1.303393 -0.437333
v 0.055928 -1.191537 -1.363144
v -0.055928 -1.191537 -1.363144
v -0.055928 -1.303393 -1.363144
v 0.055928 -1.303393 -1.363144
v 0.055928 -1.191537 -1.423267
v -0.055928 -1.191537 -1.423267
v -0.055928 -1.303393 -1.423267
v 0.055928 -1.303393 -1.423267
vn -0.0000 -0.0000 -1.0000
vn -1.0000 -0.0000 -0.0000
vn -0.0000 1.0000 -0.0000
vn 1.0000 -0.0000 -0.0000
vn -0.0000 -1.0000 -0.0000
vn -0.0000 -0.0000 1.0000
vn -0.0000 0.0002 1.0000
vn -0.0000 -0.0001 1.0000
vt 0.281306 0.729296
vt 0.258638 0.729296
vt 0.258638 0.706318
vt 0.281306 0.706318
vt 0.931996 0.516129
vt 0.931996 0.503778
vt 0.954664 0.503778
vt 0.954664 0.516129
vt 1.000000 0.000000
vt 1.000000 0.012351
vt 0.977332 0.012351
vt 0.977332 0.000000
vt 0.454664 0.012351
vt 0.454664 0.000000
vt 0.477332 0.000000
vt 0.477332 0.012351
vt 0.477332 0.202539
vt 0.454664 0.202539
vt 1.000000 0.202539
vt 0.977332 0.202539
vt 0.931996 0.313590
vt 0.954664 0.313590
vt 0.836815 0.706318
vt 0.814147 0.706318
vt 0.814147 0.516129
vt 0.836815 0.516129
vt 0.931996 0.297188
vt 0.954664 0.297188
vt 1.000000 0.218941
vt 0.977332 0.218941
vt 0.477332 0.218941
vt 0.454664 0.218941
vt 0.477332 0.437089
vt 0.454664 0.437089
vt 1.000000 0.437089
vt 0.977332 0.437089
vt 0.931996 0.079040
vt 0.954664 0.079040
vt 0.814147 0.734278
vt 0.791479 0.734278
vt 0.791479 0.516129
vt 0.931996 0.059656
vt 0.954664 0.059656
vt 1.000000 0.456473
vt 0.977332 0.456473
vt 0.477332 0.456473
vt 0.454664 0.456473
vt 0.477332 0.495510
vt 0.454664 0.495510
vt 1.000000 0.495510
vt 0.977332 0.495510
vt 0.931996 0.020619
vt 0.954664 0.020619
vt 0.452154 0.745354
vt 0.429486 0.745354
vt 0.429486 0.706318
vt 0.452154 0.706318
vt 0.931996 0.000000
vt 0.954664 0.000000
vt 1.000000 0.516129
vt 0.977332 0.516129
vt 0.477332 0.516129
vt 0.454664 0.516129
vt 0.616963 0.977022
vt 0.616963 1.000000
vt 0.594295 1.000000
vt 0.594295 0.977022
vt 0.802677 0.020619
vt 0.802677 0.000000
vt 0.594295 0.845931
vt 0.616963 0.845931
vt 0.325345 0.516129
vt 0.325345 0.495510
vt 0.371978 0.706318
vt 0.394645 0.706318
vt 0.394645 0.837408
vt 0.371978 0.837408
vt 0.802677 0.079040
vt 0.802677 0.059633
vt 0.349310 0.706318
vt 0.349310 0.837408
vt 0.325345 0.456496
vt 0.325345 0.437089
vt 0.303974 0.837408
vt 0.281306 0.837408
vt 0.303974 0.706318
vt 0.802677 0.313590
vt 0.802677 0.297188
vt 0.326642 0.706318
vt 0.326642 0.837408
vt 0.325345 0.218941
vt 0.325345 0.202539
vt 0.325345 0.012351
vt 0.325345 0.000000
vt 0.802677 0.516129
vt 0.802677 0.503778
vt 0.417313 0.837408
vt 0.417313 0.706318
vt 0.281306 0.860386
vt 0.258638 0.860386
vt 0.281306 0.881205
vt 0.258638 0.881205
vt 0.782140 0.516129
vt 0.782140 0.503778
vt 0.304808 0.012351
vt 0.304808 0.000000
vt 0.304808 0.218941
vt 0.304808 0.202539
vt 0.782140 0.313590
vt 0.782140 0.297188
vt 0.304808 0.456496
vt 0.304808 0.437089
vt 0.782140 0.079040
vt 0.782140 0.059633
vt 0.304808 0.516129
vt 0.304808 0.495510
vt 0.594295 0.825113
vt 0.616963 0.825113
vt 0.782140 0.020619
vt 0.782140 0.000000
vt 0.662299 0.516129
vt 0.662299 0.528480
vt 0.639631 0.528480
vt 0.639631 0.516129
vt 0.639631 0.718669
vt 0.662299 0.718669
vt 0.662299 0.735070
vt 0.639631 0.735070
vt 0.000000 0.734278
vt 0.022668 0.734278
vt 0.022668 0.773291
vt 0.000000 0.773291
vt 0.474822 0.706318
vt 0.497490 0.706318
vt 0.497490 0.745331
vt 0.474822 0.745331
vt 0.662299 0.953219
vt 0.639631 0.953219
vt 0.768812 0.516129
vt 0.768812 0.734278
vt 0.859483 0.516129
vt 0.859483 0.706318
vt 0.616963 0.516129
vt 0.616963 0.539108
vt 0.594295 0.539108
vt 0.594295 0.516129
vt 0.000000 0.495510
vt 0.022668 0.495510
vt 0.022668 0.516129
vt 0.000000 0.516129
vt 0.500000 0.020619
vt 0.477332 0.020619
vt 0.500000 0.000000
vt 0.954664 0.456473
vt 0.954664 0.495510
vt 0.500000 0.059656
vt 0.477332 0.059656
vt 0.474822 0.745354
vt 0.000000 0.456473
vt 0.022668 0.456473
vt 0.000000 0.437089
vt 0.022668 0.437089
vt 0.500000 0.079040
vt 0.477332 0.079040
vt 0.954664 0.218941
vt 0.954664 0.437089
vt 0.500000 0.297188
vt 0.477332 0.297188
vt 0.639631 0.734278
vt 0.616963 0.734278
vt 0.000000 0.218941
vt 0.022668 0.218941
vt 0.000000 0.202539
vt 0.022668 0.202539
vt 0.639631 0.750679
vt 0.616963 0.750679
vt 0.500000 0.313590
vt 0.477332 0.313590
vt 0.954664 0.012351
vt 0.954664 0.202539
vt 0.500000 0.503778
vt 0.477332 0.503778
vt 0.639631 0.940868
vt 0.616963 0.940868
vt 0.000000 0.012351
vt 0.022668 0.012351
vt 0.000000 0.000000
vt 0.022668 0.000000
vt 0.616963 0.953219
vt 0.500000 0.516129
vt 0.045336 0.734278
vt 0.045336 0.757256
vt 0.022668 0.757256
vt 0.707634 0.802135
vt 0.684967 0.802135
vt 0.684967 0.516129
vt 0.707634 0.516129
vt 0.684966 0.802134
vt 0.662299 0.802134
vt 0.730302 0.802134
vt 0.707634 0.802134
vt 0.730302 0.516129
s 0
usemtl M_glass_frame_black_glossy
f 1/1/1 2/2/1 3/3/1 4/4/1
f 2/5/2 6/6/2 7/7/2 3/8/2
f 3/9/3 7/10/3 8/11/3 4/12/3
f 5/13/4 1/14/4 4/15/4 8/16/4
f 5/13/4 8/16/4 10/17/4 9/18/4
f 8/11/3 7/10/3 11/19/3 10/20/3
f 7/7/2 6/6/2 12/21/2 11/22/2
f 6/23/5 5/24/5 9/25/5 12/26/5
f 11/22/2 12/21/2 14/27/2 15/28/2
f 10/20/3 11/19/3 15/29/3 16/30/3
f 9/18/4 10/17/4 16/31/4 13/32/4
f 13/32/4 16/31/4 18/33/4 17/34/4
f 16/30/3 15/29/3 19/35/3 18/36/3
f 15/28/2 14/27/2 20/37/2 19/38/2
f 14/39/5 13/40/5 17/41/5 20/25/5
f 19/38/2 20/37/2 22/42/2 23/43/2
f 18/36/3 19/35/3 23/44/3 24/45/3
f 17/34/4 18/33/4 24/46/4 21/47/4
f 21/47/4 24/46/4 25/48/4 26/49/4
f 24/45/3 23/44/3 27/50/3 25/51/3
f 23/43/2 22/42/2 28/52/2 27/53/2
f 22/54/5 21/55/5 26/56/5 28/57/5
f 27/53/2 28/52/2 29/58/2 31/59/2
f 25/51/3 27/50/3 31/60/3 32/61/3
f 26/49/4 25/48/4 32/62/4 30/63/4
f 30/64/6 32/65/6 31/66/6 29/67/6
f 29/58/2 28/52/2 33/68/2 34/69/2
f 30/64/6 29/67/6 34/70/6 35/71/6
f 26/49/4 30/63/4 35/72/4 36/73/4
f 28/74/1 26/75/1 36/76/1 33/77/1
f 22/42/2 20/37/2 37/78/2 38/79/2
f 21/80/7 22/74/7 38/77/7 39/81/7
f 17/34/4 21/47/4 39/82/4 40/83/4
f 20/84/1 17/85/1 40/4/1 37/86/1
f 14/27/2 12/21/2 41/87/2 42/88/2
f 13/89/6 14/80/6 42/81/6 43/90/6
f 9/18/4 13/32/4 43/91/4 44/92/4
f 12/90/1 9/84/1 44/86/1 41/89/1
f 1/14/4 5/13/4 46/93/4 45/94/4
f 6/6/2 2/5/2 47/95/2 48/96/2
f 5/97/6 6/76/6 48/75/6 46/98/6
f 2/2/1 1/1/1 45/99/1 47/100/1
f 47/100/1 45/99/1 49/101/1 50/102/1
f 48/96/2 47/95/2 50/103/2 52/104/2
f 45/94/4 46/93/4 51/105/4 49/106/4
f 44/92/4 43/91/4 55/107/4 54/108/4
f 42/88/2 41/87/2 53/109/2 56/110/2
f 40/83/4 39/82/4 59/111/4 58/112/4
f 38/79/2 37/78/2 57/113/2 60/114/2
f 36/73/4 35/72/4 63/115/4 62/116/4
f 35/71/6 34/70/6 64/117/6 63/118/6
f 34/69/2 33/68/2 61/119/2 64/120/2
f 49/121/5 51/122/5 52/123/5 50/124/5
f 53/125/5 54/126/5 55/127/5 56/128/5
f 61/119/2 33/68/2 38/79/2 60/114/2
f 62/129/5 61/130/5 60/131/5 59/132/5
f 36/73/4 62/116/4 59/111/4 39/82/4
f 33/133/3 36/134/3 39/135/3 38/136/3
f 57/113/2 37/78/2 42/88/2 56/110/2
f 58/137/5 57/138/5 56/128/5 55/127/5
f 40/83/4 58/112/4 55/107/4 43/91/4
f 37/139/3 40/41/3 43/40/3 42/140/3
f 53/109/2 41/87/2 48/96/2 52/104/2
f 54/126/5 53/125/5 52/123/5 51/122/5
f 44/92/4 54/108/4 51/105/4 46/93/4
f 41/26/3 44/141/3 46/142/3 48/23/3
f 67/143/6 65/144/6 66/145/6 68/146/6
f 71/147/4 72/148/4 65/149/4 67/150/4
f 70/151/2 69/152/2 68/15/2 66/153/2
f 75/154/5 76/45/5 71/51/5 69/155/5
f 74/156/2 75/157/2 69/152/2 70/151/2
f 73/158/3 74/54/3 70/57/3 72/133/3
f 76/159/4 73/160/4 72/148/4 71/147/4
f 80/161/4 79/162/4 73/160/4 76/159/4
f 78/163/2 77/164/2 75/157/2 74/156/2
f 83/165/5 84/30/5 80/36/5 77/166/5
f 82/167/2 83/168/2 77/164/2 78/163/2
f 81/169/3 82/170/3 78/143/3 79/124/3
f 84/171/4 81/172/4 79/162/4 80/161/4
f 88/173/4 87/174/4 81/172/4 84/171/4
f 87/175/3 86/176/3 82/170/3 81/169/3
f 86/177/2 85/178/2 83/168/2 82/167/2
f 91/179/5 92/11/5 88/20/5 85/180/5
f 90/181/2 91/182/2 85/178/2 86/177/2
f 89/183/3 90/184/3 86/176/3 87/175/3
f 92/185/4 89/186/4 87/174/4 88/173/4
f 92/185/4 96/187/4 93/188/4 89/186/4
f 94/189/3 90/184/3 89/183/3 93/138/3
f 95/62/2 91/182/2 90/181/2 94/190/2
f 96/130/1 95/191/1 94/192/1 93/193/1
f 64/120/2 61/119/2 70/151/2 66/153/2
f 63/118/6 64/117/6 66/145/6 65/144/6
f 62/116/4 63/115/4 65/149/4 72/148/4
f 61/194/1 62/195/1 72/196/1 70/197/1
f 60/114/2 57/113/2 78/163/2 74/156/2
f 59/121/8 60/196/8 74/198/8 73/199/8
f 58/112/4 59/111/4 73/160/4 79/162/4
f 57/200/1 58/201/1 79/197/1 78/202/1
f 68/8/5 69/155/5 71/51/5 67/61/5
f 75/154/5 77/166/5 80/36/5 76/45/5
f 83/165/5 85/180/5 88/20/5 84/30/5
f 92/11/5 91/179/5 95/59/5 96/12/5
