# Blender 4.2.0
# www.blender.org
mtllib window.mtl
o window_outside_3x3
v 1.057606 0.055928 -1.592939
v 0.953858 0.055927 -1.592939
v 1.057606 -0.055927 -1.592939
v 1.057606 0.055928 -1.532816
v 2.178195 0.055927 -1.592939
v 2.178195 0.055927 -1.532816
v 2.178195 -0.055928 -1.592939
v 2.274973 0.055927 -1.592939
v 2.274973 -0.055928 -1.592939
v 2.274973 0.055927 -1.532816
v 2.274973 -0.055928 -1.532816
v 2.274973 0.055927 -0.607386
v 2.178195 0.055927 -0.607005
v 2.274973 0.055927 -0.526783
v 2.274973 -0.055928 -0.607005
v 2.178195 -0.055928 -0.607005
v 2.274973 -0.055928 -0.527164
v 2.178195 -0.055928 -0.527164
v 2.274973 -0.055928 0.548931
v 2.178195 -0.055928 0.548931
v 2.274973 -0.055928 0.643399
v 2.274973 0.055927 0.548931
v 2.178195 0.055927 0.548931
v 2.274973 0.055927 0.643399
v 2.178195 0.055927 0.643399
v 2.274973 0.055927 1.483639
v 2.178195 0.055927 1.483639
v 2.274973 0.055927 1.584012
v 2.274973 -0.055928 1.483639
v 2.178195 -0.055928 1.483639
v 2.274973 -0.055928 1.584012
v 2.178195 -0.055928 1.584012
v 1.057606 -0.055927 1.584012
v 2.178195 0.055927 1.584012
v 1.057606 0.055928 1.584012
v 1.057606 0.055928 1.483639
v 0.950786 0.055928 1.584012
v 0.950786 0.055928 1.483639
v 0.950786 -0.055927 1.584012
v -0.955998 0.055928 1.584012
v -1.052776 0.055928 1.584012
v -0.955998 -0.055928 1.584012
v -0.955998 0.055928 1.483639
v -1.052776 0.055928 1.483639
v -0.955998 0.055928 0.643399
v -0.955998 -0.055928 1.483639
v -0.955998 -0.055928 0.643399
v -1.052776 -0.055928 1.483639
v 0.950786 -0.055927 1.483639
v 0.950786 -0.055927 0.643288
v 1.057606 -0.055927 1.483639
v 1.057606 -0.055927 0.643288
v 1.057606 -0.055927 0.548931
v 1.057606 0.055928 0.643288
v 2.178195 -0.055928 0.643399
v 1.057606 0.055928 0.548931
v 0.950786 0.055928 0.643288
v 0.950786 0.055928 0.548931
v 0.950786 0.055928 -0.527164
v 0.950786 -0.055927 0.548931
v -0.955998 0.055928 0.548931
v -1.052776 0.055928 0.548931
v -0.955998 0.055928 -0.527164
v -0.955998 -0.055928 0.548931
v -0.955998 -0.055928 -0.527164
v -1.052776 -0.055928 0.548931
v -1.052776 -0.055928 -0.527164
v -1.052776 -0.055928 0.643399
v -2.173366 -0.055927 0.548931
v -2.173366 0.055928 0.548931
v -2.173366 -0.055927 0.643288
v -2.280185 -0.055927 0.548931
v -2.173366 -0.055927 -0.527164
v -2.173366 0.055928 -0.527164
v -2.173366 -0.055927 -0.607005
v -2.280185 -0.055927 -0.527164
v -2.280185 0.055928 -0.527164
v -2.280185 -0.055927 -0.607005
v -2.280185 0.055928 -0.607005
v -2.280185 -0.055927 -1.532816
v -2.173366 -0.055927 -1.532816
v -2.280185 0.055928 -1.532816
v -2.280185 -0.055927 -1.592939
v -2.280185 0.055928 -1.592939
v -2.173366 -0.055927 -1.592939
v -1.052776 -0.055928 -1.592939
v -2.173366 0.055928 -1.592939
v -1.052776 0.055928 -1.592939
v -2.173366 0.055928 -1.532816
v -1.052776 0.055928 -1.532816
v -2.173366 0.055928 -0.607005
v -1.052776 0.055928 -0.607005
v -1.052776 -0.055928 -0.607005
v -0.955998 0.055928 -0.607005
v -1.052776 0.055928 -0.527164
v -0.955998 0.055928 -1.532816
v -0.955998 -0.055928 -0.607005
v 0.950786 0.055928 -0.607005
v 0.953858 0.055927 -1.532816
v 1.057606 0.055928 -0.607005
v 0.950786 -0.055927 -0.607005
v 0.953858 -0.055928 -1.532816
v 1.057606 -0.055927 -0.607005
v 0.950786 -0.055927 -0.527164
v 1.057606 -0.055927 -0.527164
v 1.057606 0.055928 -0.527164
v 2.178195 0.055927 -0.527164
v 1.057606 -0.055927 -1.532816
v 2.178195 -0.055928 -1.532816
v 0.953858 -0.055928 -1.592939
v -0.955998 -0.055928 -1.532816
v -1.052776 -0.055928 -1.532816
v -0.955998 -0.055928 -1.592939
v -0.955998 0.055928 -1.592939
v -2.280185 0.055928 0.548931
v -2.280185 0.055928 0.643288
v -2.280185 0.055928 1.483639
v -2.280185 -0.055927 0.643288
v -2.173366 0.055928 0.643288
v -1.052776 0.055928 0.643399
v -2.173366 0.055928 1.483639
v -2.173366 -0.055927 1.483639
v -2.173366 0.055928 1.584012
v -2.173366 -0.055927 1.584012
v -2.280185 0.055928 1.584012
v -2.280185 -0.055927 1.584012
v -2.280185 -0.055927 1.483639
v -1.052776 -0.055928 1.584012
vn -0.0000 1.0000 -0.0000
vn -0.0000 -0.0000 -1.0000
vn 1.0000 -0.0000 -0.0000
vn -0.0000 -1.0000 -0.0000
vn -0.0000 -0.0000 1.0000
vn -1.0000 -0.0000 -0.0000
vn -0.0001 -0.0000 1.0000
vn 0.0001 -0.0000 1.0000
vn -1.0000 -0.0000 -0.0033
vt 0.561645 0.072189
vt 0.565211 0.072189
vt 0.565211 0.078341
vt 0.561645 0.078341
vt 0.966937 0.671743
vt 0.960304 0.671743
vt 0.960303 0.665591
vt 0.966937 0.665591
vt 0.966937 0.738193
vt 0.960303 0.738193
vt 0.561645 0.005739
vt 0.565211 0.005739
vt 0.561645 0.000000
vt 0.565211 0.000000
vt 0.966937 0.743932
vt 0.960303 0.743932
vt 0.933614 0.476589
vt 0.933614 0.480154
vt 0.926980 0.480154
vt 0.926980 0.476589
vt 0.506742 0.005739
vt 0.506764 0.000000
vt 0.933614 0.535032
vt 0.926980 0.535054
vt 0.502007 0.005739
vt 0.501984 0.000000
vt 0.933614 0.539811
vt 0.926980 0.539789
vt 0.435276 0.270595
vt 0.435276 0.276334
vt 0.380373 0.276334
vt 0.380373 0.270595
vt 0.440011 0.276334
vt 0.440011 0.270595
vt 0.503827 0.270595
vt 0.503827 0.276334
vt 0.933614 0.603600
vt 0.926980 0.603600
vt 0.509429 0.276334
vt 0.509429 0.270595
vt 0.933614 0.609202
vt 0.926980 0.609202
vt 0.438191 0.005739
vt 0.438191 0.000000
vt 0.432588 0.005739
vt 0.432588 0.000000
vt 0.382760 0.005739
vt 0.382760 0.000000
vt 0.933614 0.659028
vt 0.926980 0.659028
vt 0.376807 0.005739
vt 0.376807 0.000000
vt 0.933614 0.664980
vt 0.926980 0.664980
vt 0.559258 0.270595
vt 0.559258 0.276334
vt 0.565211 0.276334
vt 0.565211 0.270595
vt 0.966937 0.463729
vt 0.973570 0.463729
vt 0.973570 0.469468
vt 0.966937 0.469468
vt 0.966937 0.397279
vt 0.973570 0.397279
vt 0.565211 0.342784
vt 0.559258 0.342784
vt 0.382760 0.072189
vt 0.376807 0.072189
vt 0.382760 0.078523
vt 0.376807 0.078523
vt 0.966937 0.390944
vt 0.973570 0.390944
vt 0.382760 0.191594
vt 0.376807 0.191594
vt 0.966937 0.277874
vt 0.973570 0.277874
vt 0.382760 0.197333
vt 0.376807 0.197333
vt 0.966937 0.272135
vt 0.973570 0.272135
vt 0.432588 0.191594
vt 0.432588 0.197333
vt 0.524339 0.932658
vt 0.530972 0.932658
vt 0.530972 0.982484
vt 0.524339 0.982484
vt 0.222745 0.767332
vt 0.216112 0.767332
vt 0.216112 0.654261
vt 0.222745 0.654261
vt 0.559258 0.462189
vt 0.559258 0.467928
vt 0.509429 0.467928
vt 0.509429 0.462189
vt 0.565211 0.467928
vt 0.565211 0.462189
vt 0.559258 0.349118
vt 0.565211 0.349118
vt 0.509423 0.349118
vt 0.509423 0.342784
vt 0.383441 0.982490
vt 0.376807 0.982490
vt 0.376807 0.932658
vt 0.383440 0.932658
vt 0.396707 0.982490
vt 0.390074 0.982490
vt 0.390074 0.932658
vt 0.396707 0.932658
vt 0.116441 0.972948
vt 0.109807 0.972948
vt 0.109807 0.906498
vt 0.116441 0.906498
vt 0.503827 0.342784
vt 0.503827 0.349118
vt 0.281797 0.969997
vt 0.275164 0.969997
vt 0.275164 0.903547
vt 0.281797 0.903547
vt 0.453176 0.932658
vt 0.459810 0.932658
vt 0.459810 0.982484
vt 0.453176 0.982484
vt 0.438191 0.072189
vt 0.432595 0.072189
vt 0.438191 0.078523
vt 0.432595 0.078523
vt 0.438191 0.191594
vt 0.960303 0.857003
vt 0.953670 0.857003
vt 0.953670 0.743932
vt 0.986837 0.454597
vt 0.980204 0.454597
vt 0.980204 0.390785
vt 0.986837 0.390785
vt 0.502007 0.072189
vt 0.502007 0.078523
vt 0.209478 0.767332
vt 0.209478 0.654261
vt 0.438191 0.197333
vt 0.502007 0.191594
vt 0.502007 0.197333
vt 0.980204 0.837466
vt 0.986837 0.837466
vt 0.986837 0.901278
vt 0.980204 0.901278
vt 0.503827 0.462189
vt 0.503827 0.467928
vt 0.440011 0.467928
vt 0.440011 0.462189
vt 0.973570 0.910873
vt 0.980204 0.910873
vt 0.980204 0.974684
vt 0.973570 0.974684
vt 0.365513 0.969997
vt 0.358880 0.969997
vt 0.358880 0.903547
vt 0.365513 0.903547
vt 0.509423 0.534378
vt 0.503827 0.534378
vt 0.986837 0.965089
vt 0.980204 0.965089
vt 0.503827 0.540713
vt 0.509423 0.540713
vt 0.440011 0.540713
vt 0.440011 0.534378
vt 0.295064 0.969997
vt 0.288431 0.969997
vt 0.288431 0.903547
vt 0.295064 0.903547
vt 0.435276 0.534378
vt 0.435276 0.467928
vt 0.435276 0.540713
vt 0.940247 0.601780
vt 0.933614 0.601780
vt 0.933614 0.537969
vt 0.940247 0.537969
vt 0.940247 0.606515
vt 0.933614 0.606515
vt 0.940247 0.661415
vt 0.933614 0.661415
vt 0.380373 0.540713
vt 0.380373 0.534378
vt 0.376807 0.534378
vt 0.376807 0.540713
vt 0.940247 0.664980
vt 0.966937 0.480149
vt 0.960304 0.480149
vt 0.960304 0.473814
vt 0.966937 0.473814
vt 0.376807 0.467928
vt 0.380373 0.467928
vt 0.966937 0.546599
vt 0.960303 0.546599
vt 0.565211 0.263783
vt 0.561645 0.263783
vt 0.561645 0.197333
vt 0.565211 0.197333
vt 0.565211 0.270117
vt 0.561645 0.270117
vt 0.301697 0.969997
vt 0.301697 0.903547
vt 0.711177 0.987081
vt 0.704544 0.987081
vt 0.704544 0.932181
vt 0.711177 0.932181
vt 0.506742 0.270117
vt 0.506742 0.263783
vt 0.372147 0.969997
vt 0.372147 0.903547
vt 0.502007 0.263783
vt 0.506742 0.197333
vt 0.502007 0.270117
vt 0.793415 0.212810
vt 0.800048 0.212810
vt 0.800048 0.267710
vt 0.793415 0.267710
vt 0.506742 0.191594
vt 0.561645 0.191594
vt 0.626748 0.932181
vt 0.633381 0.932181
vt 0.633381 0.987080
vt 0.626748 0.987080
vt 0.241997 0.767332
vt 0.235363 0.767332
vt 0.235363 0.654261
vt 0.241997 0.654261
vt 0.506742 0.078523
vt 0.766881 0.267710
vt 0.760248 0.267710
vt 0.760248 0.212810
vt 0.766881 0.212810
vt 0.506742 0.072189
vt 0.380373 0.348936
vt 0.380373 0.342784
vt 0.435276 0.342784
vt 0.435276 0.349118
vt 0.440011 0.342784
vt 0.440011 0.349118
vt 0.435276 0.462189
vt 0.966937 0.857003
vt 0.980204 0.773655
vt 0.986837 0.773655
vt 0.268530 0.969997
vt 0.268530 0.903547
vt 0.980204 0.326973
vt 0.986837 0.326973
vt 0.640014 0.987080
vt 0.640014 0.932181
vt 0.345613 0.969997
vt 0.338980 0.969997
vt 0.338980 0.903547
vt 0.345613 0.903547
vt 0.376807 0.342784
vt 0.376807 0.276334
vt 0.376807 0.348936
vt 0.308331 0.969997
vt 0.308331 0.903547
vt 0.376807 0.270595
vt 0.585111 0.927720
vt 0.591744 0.927720
vt 0.591744 0.982619
vt 0.585111 0.982619
vt 0.380373 0.462189
vt 0.376807 0.462189
vt 0.232881 0.950168
vt 0.226248 0.950168
vt 0.226248 0.836915
vt 0.232881 0.836915
vt 0.966937 0.552338
vt 0.960303 0.552338
vt 0.565211 0.191594
vt 0.438191 0.270117
vt 0.438191 0.263783
vt 0.432595 0.270117
vt 0.432595 0.263783
vt 0.933614 0.532373
vt 0.940247 0.532373
vt 0.382760 0.270117
vt 0.382760 0.263783
vt 0.933614 0.482541
vt 0.940247 0.482541
vt 0.737711 0.982013
vt 0.731077 0.982013
vt 0.731077 0.932181
vt 0.737711 0.932181
vt 0.352247 0.969997
vt 0.352247 0.903547
vt 0.376807 0.263783
vt 0.376807 0.270117
vt 0.966937 0.205685
vt 0.973570 0.205685
vt 0.966937 0.199350
vt 0.973570 0.199350
vt 0.940247 0.476589
vt 0.559258 0.540712
vt 0.559258 0.534378
vt 0.565211 0.534378
vt 0.565211 0.540712
vt 0.466443 0.932658
vt 0.473077 0.932658
vt 0.473077 0.982484
vt 0.466443 0.982484
s 0
usemtl M_glass_frame_black_glossy
f 4/1/1 1/2/1 2/3/1 99/4/1
f 1/5/2 3/6/2 110/7/2 2/8/2
f 3/6/2 1/5/2 5/9/2 7/10/2
f 1/2/1 4/1/1 6/11/1 5/12/1
f 5/12/1 6/11/1 10/13/1 8/14/1
f 7/10/2 5/9/2 8/15/2 9/16/2
f 8/17/3 10/18/3 11/19/3 9/20/3
f 13/21/1 12/22/1 10/13/1 6/11/1
f 12/23/3 15/24/3 11/19/3 10/18/3
f 13/21/1 107/25/1 14/26/1 12/22/1
f 15/24/3 12/23/3 14/27/3 17/28/3
f 15/29/4 16/30/4 109/31/4 11/32/4
f 18/33/4 16/30/4 15/29/4 17/34/4
f 19/35/4 20/36/4 18/33/4 17/34/4
f 22/37/3 19/38/3 17/28/3 14/27/3
f 55/39/4 20/36/4 19/35/4 21/40/4
f 19/38/3 22/37/3 24/41/3 21/42/3
f 23/43/1 22/44/1 14/26/1 107/25/1
f 23/43/1 25/45/1 24/46/1 22/44/1
f 27/47/1 26/48/1 24/46/1 25/45/1
f 26/49/3 29/50/3 21/42/3 24/41/3
f 27/47/1 34/51/1 28/52/1 26/48/1
f 29/50/3 26/49/3 28/53/3 31/54/3
f 29/55/4 30/56/4 55/39/4 21/40/4
f 32/57/4 30/56/4 29/55/4 31/58/4
f 34/59/5 32/60/5 31/61/5 28/62/5
f 35/63/5 33/64/5 32/60/5 34/59/5
f 33/65/4 51/66/4 30/56/4 32/57/4
f 36/67/1 35/68/1 34/51/1 27/47/1
f 36/67/1 38/69/1 37/70/1 35/68/1
f 35/63/5 37/71/5 39/72/5 33/64/5
f 43/73/1 40/74/1 37/70/1 38/69/1
f 40/75/5 42/76/5 39/72/5 37/71/5
f 44/77/1 41/78/1 40/74/1 43/73/1
f 41/79/5 128/80/5 42/76/5 40/75/5
f 44/77/1 43/73/1 45/81/1 120/82/1
f 43/83/3 46/84/3 47/85/3 45/86/3
f 46/87/2 43/88/2 38/89/2 49/90/2
f 46/91/4 48/92/4 68/93/4 47/94/4
f 128/95/4 48/92/4 46/91/4 42/96/4
f 42/96/4 46/91/4 49/97/4 39/98/4
f 50/99/4 52/100/4 51/66/4 49/97/4
f 57/101/6 50/102/6 49/103/6 38/104/6
f 49/97/4 51/66/4 33/65/4 39/98/4
f 52/105/3 54/106/3 36/107/3 51/108/3
f 51/109/2 36/110/2 27/111/2 30/112/2
f 52/100/4 53/113/4 20/36/4 55/39/4
f 60/114/4 53/113/4 52/100/4 50/99/4
f 54/115/7 52/116/7 55/117/7 25/118/7
f 30/119/6 27/120/6 25/121/6 55/122/6
f 56/123/1 54/124/1 25/45/1 23/43/1
f 56/123/1 58/125/1 57/126/1 54/124/1
f 54/124/1 57/126/1 38/69/1 36/67/1
f 61/127/1 45/81/1 57/126/1 58/125/1
f 45/128/8 47/129/8 50/130/8 57/16/8
f 59/131/6 104/132/6 60/133/6 58/134/6
f 106/135/1 59/136/1 58/125/1 56/123/1
f 64/88/2 61/137/2 58/138/2 60/89/2
f 62/139/1 120/82/1 45/81/1 61/127/1
f 62/139/1 61/127/1 63/140/1 95/141/1
f 61/142/3 64/143/3 65/144/3 63/145/3
f 64/146/4 66/147/4 67/148/4 65/149/4
f 68/93/4 66/147/4 64/146/4 47/94/4
f 47/94/4 64/146/4 60/114/4 50/99/4
f 66/150/6 62/151/6 95/152/6 67/153/6
f 69/154/2 70/155/2 62/156/2 66/157/2
f 71/158/4 69/159/4 66/147/4 68/93/4
f 73/160/3 74/161/3 70/145/3 69/144/3
f 72/162/4 69/159/4 71/158/4 118/163/4
f 76/164/4 73/165/4 69/159/4 72/162/4
f 74/166/5 73/167/5 67/168/5 95/169/5
f 73/165/4 75/170/4 93/171/4 67/148/4
f 78/172/4 75/170/4 73/165/4 76/164/4
f 77/173/6 76/174/6 72/175/6 115/176/6
f 79/177/6 78/178/6 76/174/6 77/173/6
f 82/179/6 80/180/6 78/178/6 79/177/6
f 80/181/4 81/182/4 75/170/4 78/172/4
f 85/183/4 81/182/4 80/181/4 83/184/4
f 83/53/6 80/180/6 82/179/6 84/185/6
f 87/186/2 85/187/2 83/188/2 84/189/2
f 81/182/4 85/183/4 86/190/4 112/191/4
f 85/187/2 87/186/2 88/192/2 86/193/2
f 87/194/1 89/195/1 90/196/1 88/197/1
f 89/195/1 87/194/1 84/198/1 82/199/1
f 89/200/5 81/166/5 112/169/5 90/201/5
f 81/202/3 89/203/3 91/204/3 75/205/3
f 89/195/1 82/199/1 79/206/1 91/207/1
f 75/208/2 91/154/2 92/157/2 93/209/2
f 91/207/1 74/210/1 95/141/1 92/211/1
f 91/207/1 79/206/1 77/212/1 74/210/1
f 93/213/6 92/214/6 90/215/6 112/216/6
f 92/211/1 94/217/1 96/218/1 90/196/1
f 92/211/1 95/141/1 63/140/1 94/217/1
f 94/219/3 97/220/3 111/221/3 96/222/3
f 97/223/2 94/224/2 98/225/2 101/226/2
f 94/217/1 63/140/1 59/136/1 98/227/1
f 99/228/9 102/229/9 101/230/9 98/231/9
f 4/1/1 99/4/1 98/227/1 100/232/1
f 100/232/1 98/227/1 59/136/1 106/135/1
f 102/233/4 108/234/4 103/235/4 101/236/4
f 101/236/4 103/235/4 105/237/4 104/238/4
f 65/149/4 97/239/4 101/236/4 104/238/4
f 104/238/4 105/237/4 53/113/4 60/114/4
f 63/240/5 65/128/5 104/16/5 59/15/5
f 105/237/4 103/235/4 16/30/4 18/33/4
f 105/143/3 106/142/3 56/241/3 53/242/3
f 106/116/5 105/243/5 18/244/5 107/117/5
f 100/232/1 106/135/1 107/25/1 13/21/1
f 20/245/6 23/246/6 107/134/6 18/133/6
f 108/247/3 4/221/3 100/220/3 103/248/3
f 103/249/2 100/250/2 13/251/2 16/252/2
f 108/234/4 3/253/4 7/254/4 109/31/4
f 3/253/4 108/234/4 102/233/4 110/255/4
f 4/256/5 108/200/5 109/201/5 6/257/5
f 109/31/4 7/254/4 9/258/4 11/32/4
f 16/259/6 13/260/6 6/261/6 109/262/6
f 111/263/4 113/264/4 110/255/4 102/233/4
f 96/265/5 111/266/5 102/267/5 99/268/5
f 97/239/4 93/171/4 112/191/4 111/263/4
f 112/191/4 86/190/4 113/264/4 111/263/4
f 86/193/2 88/192/2 114/269/2 113/270/2
f 113/270/2 114/269/2 2/8/2 110/7/2
f 88/197/1 90/196/1 96/218/1 114/271/1
f 114/271/1 96/218/1 99/4/1 2/3/1
f 67/148/4 93/171/4 97/239/4 65/149/4
f 74/210/1 77/212/1 115/272/1 70/273/1
f 70/273/1 115/272/1 116/274/1 119/275/1
f 115/176/6 72/175/6 118/276/6 116/277/6
f 119/275/1 116/274/1 117/278/1 121/279/1
f 116/277/6 118/276/6 127/280/6 117/281/6
f 70/273/1 119/275/1 120/82/1 62/139/1
f 119/167/7 71/115/7 68/118/7 120/168/7
f 71/282/3 119/283/3 121/284/3 122/285/3
f 122/155/2 121/286/2 44/287/2 48/156/2
f 121/279/1 123/288/1 41/78/1 44/77/1
f 121/279/1 117/278/1 125/289/1 123/288/1
f 123/290/5 124/291/5 128/80/5 41/79/5
f 123/290/5 125/292/5 126/293/5 124/291/5
f 117/281/6 127/280/6 126/17/6 125/294/6
f 127/295/4 122/296/4 124/297/4 126/298/4
f 118/163/4 71/158/4 122/296/4 127/295/4
f 124/297/4 122/296/4 48/92/4 128/95/4
f 48/299/6 44/300/6 120/301/6 68/302/6
f 53/286/2 56/249/2 23/252/2 20/287/2
